<?xml version="1.0" standalone="no"?>
<!DOCTYPE svg PUBLIC "-//W3C//DTD SVG 20010904//EN"
 "http://www.w3.org/TR/2001/REC-SVG-20010904/DTD/svg10.dtd">
<svg version="1.0" xmlns="http://www.w3.org/2000/svg"
 width="378.000000pt" height="381.000000pt" viewBox="0 0 378.000000 381.000000"
 preserveAspectRatio="xMidYMid meet">

<g transform="translate(0.000000,381.000000) scale(0.100000,-0.100000)"
fill="#000000" stroke="none">
<path d="M0 1905 l0 -1905 1890 0 1890 0 0 1905 0 1905 -1890 0 -1890 0 0
-1905z m1452 1025 c53 -23 98 -57 98 -73 0 -14 -101 -114 -204 -203 -39 -32
-80 -69 -93 -81 -19 -20 -32 -23 -106 -23 -46 0 -87 3 -90 7 -21 20 295 393
333 393 10 0 38 -9 62 -20z m-192 7 c0 -1 -28 -32 -62 -68 -35 -35 -83 -95
-108 -132 -25 -36 -49 -67 -54 -67 -14 0 2 155 21 203 25 66 27 67 119 67 46
0 84 -1 84 -3z m583 -138 c52 -24 42 -37 -173 -238 -30 -28 -64 -54 -76 -57
-12 -3 -62 9 -113 27 l-93 32 48 41 c26 23 98 81 158 130 l110 88 56 -5 c30
-3 67 -11 83 -18z m582 -30 c43 -12 92 -58 158 -148 38 -52 77 -72 106 -54 23
14 25 47 6 87 -22 46 -16 68 19 77 63 17 106 -32 113 -126 9 -117 -108 -191
-215 -136 -22 11 -57 46 -85 85 -57 77 -94 106 -145 113 -43 5 -96 -19 -124
-57 -10 -14 -27 -74 -39 -139 -25 -133 -45 -165 -102 -165 -43 0 -77 27 -77
61 0 14 21 46 55 82 45 50 58 72 75 133 33 115 58 158 105 179 46 21 93 24
150 8z m-344 -39 c48 -26 1 -175 -95 -298 -65 -85 -80 -96 -121 -89 -38 6
-149 59 -178 85 -18 16 -18 17 5 35 13 10 55 49 93 86 82 79 182 164 210 179
25 14 61 15 86 2z m338 -140 c10 -5 28 -39 40 -77 25 -76 36 -94 69 -112 52
-28 76 -108 50 -166 -17 -39 -82 -68 -148 -68 -123 0 -168 65 -124 180 15 38
15 46 0 89 -9 26 -16 65 -16 86 0 32 5 41 33 58 35 22 68 25 96 10z m-1078
-130 c106 -22 156 -40 296 -106 203 -96 313 -124 488 -124 101 0 115 -7 115
-57 0 -52 -18 -56 -229 -50 -209 5 -223 8 -416 91 l-120 51 -210 0 c-238 0
-250 3 -279 76 -19 47 -21 125 -3 132 34 14 270 6 358 -13z m1479 -60 c34 -34
21 -98 -28 -137 -40 -33 -102 2 -102 58 0 40 14 65 48 83 37 21 58 20 82 -4z
m-1507 -211 c127 -19 497 -118 524 -140 17 -15 17 -51 -1 -94 l-15 -35 -73 0
c-101 0 -135 12 -182 65 -52 58 -121 77 -257 73 l-92 -3 -30 -37 c-38 -47 -47
-120 -23 -200 32 -111 94 -153 215 -146 89 5 138 27 196 88 55 57 84 70 158
70 95 0 96 -3 58 -162 -54 -226 -58 -472 -11 -627 40 -127 22 -152 -115 -159
l-83 -4 -3 113 c-4 100 -7 121 -32 171 -36 73 -85 115 -204 174 -102 51 -113
63 -128 150 -7 43 -34 77 -72 88 -26 8 -98 -11 -114 -31 -18 -21 8 -45 40 -38
41 9 66 -15 66 -63 0 -73 -51 -101 -160 -87 -84 10 -89 18 -81 149 9 147 28
205 86 270 68 74 80 103 89 220 12 144 30 174 118 195 52 12 46 12 126 0z
m1390 -72 c122 -165 170 -267 175 -367 3 -66 1 -79 -20 -110 -39 -58 -51 -51
-88 47 -50 133 -118 301 -149 365 l-27 57 30 31 c17 16 33 30 36 30 3 0 22
-24 43 -53z m-149 -79 c10 -35 42 -134 72 -221 59 -175 130 -406 164 -537 29
-112 32 -250 5 -280 -41 -45 -109 -9 -145 76 -39 89 -60 191 -115 544 -14 91
-39 219 -55 285 -44 188 -44 183 -23 188 10 3 32 5 49 6 30 1 32 -2 48 -61z
m-170 0 c60 -213 127 -836 106 -1001 -8 -72 -13 -85 -40 -109 -41 -38 -93 -38
-116 -2 -16 23 -17 60 -11 412 6 349 -1 613 -19 709 -6 32 -2 36 53 42 7 0 19
-23 27 -51z m-270 21 c21 -6 57 -28 79 -49 37 -34 41 -42 40 -86 0 -35 -10
-70 -37 -124 -20 -41 -36 -82 -36 -92 0 -16 -11 -18 -95 -18 -54 0 -95 4 -95
10 0 29 29 61 86 94 95 54 117 115 62 174 -27 27 -62 28 -88 2 -19 -19 -19
-22 -4 -51 22 -43 12 -59 -35 -59 -50 0 -71 26 -71 90 0 37 5 51 28 73 48 46
95 56 166 36z m-801 -109 c-1 -19 -3 -52 -4 -72 -3 -57 23 -88 71 -88 44 0 84
29 78 58 -3 13 -12 16 -36 14 -63 -6 -85 49 -36 87 36 29 116 29 144 1 24 -24
25 -33 4 -93 -17 -51 -89 -123 -127 -129 -40 -6 -108 9 -135 29 -32 24 -40 48
-41 131 -1 82 10 104 52 100 30 -3 32 -5 30 -38z m908 -369 c16 -20 19 -40 19
-140 0 -132 -11 -183 -46 -218 -24 -24 -29 -25 -137 -21 -71 2 -123 9 -141 18
-65 33 -84 96 -71 246 6 78 10 91 36 117 l29 28 146 -3 c139 -3 147 -4 165
-27z m-909 -314 c137 -80 226 -290 153 -362 -20 -20 -34 -25 -77 -25 -89 1
-139 17 -184 61 -36 35 -47 40 -108 48 -87 10 -116 40 -83 85 16 22 72 23 152
2 74 -20 95 -20 123 0 29 20 28 45 -5 76 -47 43 -66 48 -188 48 -126 0 -155 8
-155 44 0 37 27 51 109 56 124 8 212 -3 263 -33z m886 -156 c21 -11 23 -18 17
-49 -10 -54 -77 -152 -138 -201 -23 -19 -53 2 -109 76 -63 83 -88 130 -88 165
l0 30 148 -4 c95 -2 155 -8 170 -17z"/>
<path d="M1985 1460 c-23 -45 -19 -78 15 -111 32 -32 57 -33 92 -1 16 14 38
70 38 99 0 26 -32 43 -80 43 -45 0 -51 -3 -65 -30z"/>
<path d="M1960 1035 c0 -19 58 -85 75 -85 7 0 30 19 51 43 l38 42 -44 7 c-79
12 -120 9 -120 -7z"/>
</g>
</svg>
